<svg xmlns="http://www.w3.org/2000/svg" viewBox="24.0 -33.8 802.0 422.1" role="img" aria-label="Diagram render">
      <defs>
        <linearGradient id="surface" x1="0" y1="0" x2="0" y2="1">
          <stop offset="0%" stop-color="#0c1220" />
          <stop offset="100%" stop-color="#16202e" />
        </linearGradient>
        <linearGradient id="entrySurface" x1="0" y1="0" x2="0" y2="1">
          <stop offset="0%" stop-color="#1c2128" />
          <stop offset="100%" stop-color="#161b22" />
        </linearGradient>
        <linearGradient id="gateSurface" x1="0" y1="0" x2="0" y2="1">
          <stop offset="0%" stop-color="#1c2128" />
          <stop offset="100%" stop-color="#161b22" />
        </linearGradient>
        
        <linearGradient id="mergeSurface" x1="0" y1="0" x2="0" y2="1">
          <stop offset="0%" stop-color="#1c2128" />
          <stop offset="100%" stop-color="#161b22" />
        </linearGradient>
        <linearGradient id="secondarySurface" x1="0" y1="0" x2="0" y2="1">
          <stop offset="0%" stop-color="#1c2128" />
          <stop offset="100%" stop-color="#161b22" />
        </linearGradient>
        <linearGradient id="primaryCardSurface" x1="0" y1="0" x2="0" y2="1">
          <stop offset="0%" stop-color="#1c2128" />
          <stop offset="100%" stop-color="#161b22" />
        </linearGradient>
        <filter id="cardShadow" x="-20%" y="-20%" width="140%" height="140%">
          <feDropShadow dx="0" dy="8" stdDeviation="9" flood-color="#58a6ff" flood-opacity="0.10" />
          <feDropShadow dx="0" dy="2" stdDeviation="3" flood-color="#000000" flood-opacity="0.2" />
        </filter>
        
        <filter id="theme-filter" x="-20%" y="-20%" width="140%" height="140%">
          <feDropShadow dx="0" dy="1" stdDeviation="2.2"
            flood-color="#000000"
            flood-opacity="0.05" />
        </filter>
        <marker id="arrowhead" markerWidth="10" markerHeight="10" refX="7" refY="3.5" orient="auto">
          <polygon points="0 0, 8 3.5, 0 7" fill="#484f58" />
        </marker>
        <marker id="arrowhead-warm" markerWidth="10" markerHeight="10" refX="7" refY="3.5" orient="auto">
          <polygon points="0 0, 8 3.5, 0 7" fill="#3fb950" />
        </marker>
        <marker id="arrowhead-cool" markerWidth="10" markerHeight="10" refX="7" refY="3.5" orient="auto">
          <polygon points="0 0, 8 3.5, 0 7" fill="#f85149" />
        </marker>
        <marker id="arrowhead-bold" markerWidth="14" markerHeight="14" refX="13" refY="5.5" orient="auto">
          <polygon points="1 0, 13 5.5, 1 11" fill="#484f58" />
        </marker>
        <marker id="chevron-cyan" viewBox="0 0 12 12" markerWidth="10" markerHeight="10" refX="8" refY="4" orient="auto">
          <path d="M 0 0 L 8 4 L 0 8" fill="none" stroke="#7dd3fc" stroke-width="2" stroke-linecap="round" stroke-linejoin="round" />
        </marker>
        <marker id="triangle-open" markerWidth="14" markerHeight="12" refX="10" refY="6" orient="auto">
          <path d="M 10 6 L 0 0 L 0 12 Z" fill="#1c2128" stroke="#484f58" stroke-width="1.5" />
        </marker>
        <marker id="diamond-filled" markerWidth="14" markerHeight="12" refX="10" refY="6" orient="auto">
          <path d="M 0 6 L 5 1 L 10 6 L 5 11 Z" fill="#484f58" stroke="#484f58" stroke-width="1.2" />
        </marker>
        <marker id="diamond-open" markerWidth="14" markerHeight="12" refX="10" refY="6" orient="auto">
          <path d="M 0 6 L 5 1 L 10 6 L 5 11 Z" fill="#1c2128" stroke="#484f58" stroke-width="1.2" />
        </marker>
        <marker id="er-oneone" markerWidth="18" markerHeight="18" refX="14" refY="9" orient="auto">
          <path d="M 4 2 V 16 M 10 2 V 16" stroke="#484f58" stroke-width="1.5" />
        </marker>
        <marker id="er-onezero" markerWidth="24" markerHeight="18" refX="20" refY="9" orient="auto">
          <circle cx="5" cy="9" r="3.2" fill="#1c2128" stroke="#484f58" stroke-width="1.2" />
          <path d="M 12 2 V 16" stroke="#484f58" stroke-width="1.5" />
        </marker>
        <marker id="er-zeroone" markerWidth="24" markerHeight="18" refX="20" refY="9" orient="auto">
          <circle cx="5" cy="9" r="3.2" fill="#1c2128" stroke="#484f58" stroke-width="1.2" />
          <path d="M 12 2 V 16" stroke="#484f58" stroke-width="1.5" />
        </marker>
        <marker id="er-zeromany" markerWidth="28" markerHeight="18" refX="24" refY="9" orient="auto">
          <circle cx="5" cy="9" r="3.2" fill="#1c2128" stroke="#484f58" stroke-width="1.2" />
          <path d="M 13 9 L 22 3 M 13 9 L 22 9 M 13 9 L 22 15" stroke="#484f58" stroke-width="1.4" />
        </marker>
        <marker id="er-manyone" markerWidth="28" markerHeight="18" refX="24" refY="9" orient="auto">
          <path d="M 4 9 L 13 3 M 4 9 L 13 9 M 4 9 L 13 15" stroke="#484f58" stroke-width="1.4" />
          <path d="M 18 2 V 16" stroke="#484f58" stroke-width="1.5" />
        </marker>
        <marker id="er-manyzero" markerWidth="32" markerHeight="18" refX="28" refY="9" orient="auto">
          <path d="M 4 9 L 13 3 M 4 9 L 13 9 M 4 9 L 13 15" stroke="#484f58" stroke-width="1.4" />
          <circle cx="20" cy="9" r="3.2" fill="#1c2128" stroke="#484f58" stroke-width="1.2" />
        </marker>
        <marker id="er-onemany" markerWidth="28" markerHeight="18" refX="24" refY="9" orient="auto">
          <path d="M 4 2 V 16" stroke="#484f58" stroke-width="1.5" />
          <path d="M 10 9 L 20 3 M 10 9 L 20 9 M 10 9 L 20 15" stroke="#484f58" stroke-width="1.4" />
        </marker>
        
        
        
        
      </defs>

        <defs>
          <linearGradient id="bg-grad" x1="0" y1="0" x2="1" y2="1">
            <stop offset="0%" stop-color="#0c1220" />
            <stop offset="100%" stop-color="#16202e" />
          </linearGradient>
          <pattern id="dot-grid" x="0" y="0" width="32" height="32" patternUnits="userSpaceOnUse">
            <circle cx="16" cy="16" r="1.1" fill="rgba(88,166,255,0.1)" />
          </pattern>
        </defs>
        <rect x="24" y="-33.8" width="802" height="422.1" fill="url(#bg-grad)" />
        <rect x="24" y="-33.8" width="802" height="422.1" fill="url(#dot-grid)" />
      
        <g data-edge-id="edge-2">
    <g>
      <path d="M 339.900 172.700 L 310.045 227.917 Q 308 231.700 308 236 L 308 236 Q 308 240.300 312.281 240.701 L 383.078 247.323 Q 401 249 418.922 247.323 L 489.719 240.701 Q 494 240.300 494 236 L 494 236 Q 494 231.700 491.955 227.917 L 462.100 172.700" fill="none" stroke="#484f58" stroke-width="3.0472" stroke-linecap="round" stroke-linejoin="round" marker-end="url(#arrowhead)" opacity="1" />
      <g><rect x="350.1" y="239.0" width="101.8" height="20.0" rx="10.0" ry="10.0" fill="#ffffff" stroke="rgba(91, 71, 194, 0.28)" stroke-width="1" /><text x="401" y="252.5" text-anchor="middle" fill="#6e7681" font-size="12" font-weight="700" font-family="var(--font-geist-sans), 'Noto Sans TC', 'Hiragino Sans', 'Yu Gothic', sans-serif">&gt;|No| Retry</text></g>
      
    </g>
  </g><g data-edge-id="edge-1">
    <g>
      <path d="M 494.0 130.5 C 515.7 130.5, 602.3 130.5, 624.0 130.5" fill="none" stroke="#3fb950" stroke-width="3.0472" stroke-linecap="round" stroke-linejoin="round" marker-end="url(#arrowhead-warm)" opacity="1" />
      <g><rect x="537.8" y="120.5" width="42.3" height="20.0" rx="10.0" ry="10.0" fill="#ffffff" stroke="rgba(91, 71, 194, 0.28)" stroke-width="1" /><text x="559" y="134.0" text-anchor="middle" fill="#6e7681" font-size="12" font-weight="700" font-family="var(--font-geist-sans), 'Noto Sans TC', 'Hiragino Sans', 'Yu Gothic', sans-serif">Yes</text></g>
      
    </g>
  </g><g data-edge-id="edge-0">
    <g>
      <path d="M 220.0 130.5 C 234.7 130.5, 293.3 130.5, 308.0 130.5" fill="none" stroke="#484f58" stroke-width="2.6" stroke-linecap="round" stroke-linejoin="round" marker-end="url(#arrowhead)" opacity="0.82" />
      
      
    </g>
  </g>
      
      <g data-node-id="Start">
      <g>
        
    
    <g filter="url(#cardShadow)">
      <rect x="56" y="103.5" width="172" height="70" rx="22" fill="#21262d" opacity="0.65" />
      <rect x="48" y="102.5" width="172" height="70" rx="22" fill="#58a6ff" />
      <rect x="48" y="95.5" width="172" height="70" rx="22" fill="url(#entrySurface)" stroke="#58a6ff" stroke-width="1.2" />
      <rect x="54" y="101.5" width="160" height="58" rx="16" fill="#1c2128" opacity="0.78" />
      
    </g>
  
        <rect x="62" y="109.5" width="10" height="42" rx="5" fill="#58a6ff" />
        <rect x="78" y="113.5" width="42" height="4" rx="2" fill="#58a6ff" />
        
    <text x="138" y="135.5" text-anchor="middle" fill="#c9d1d9" font-size="15" font-weight="700" font-family="var(--font-geist-sans), 'Noto Sans TC', 'Hiragino Sans', 'Yu Gothic', sans-serif">
      <tspan x="138" dy="0">Start</tspan>
    </text>
  
      </g>
    </g><g data-node-id="Check">
    <g filter="url(#cardShadow)" data-node-variant="decision-panel">
      <polygon points="401,64 474,93 494,130.5 474,168 401,197 328,168 308,130.5 328,93" fill="#21262d" opacity="0.34" transform="translate(8 8)" />
      <polygon points="401,71 474,100 494,137.5 474,175 401,204 328,175 308,137.5 328,100" fill="#8b949e" />
      <polygon points="401,64 474,93 494,130.5 474,168 401,197 328,168 308,130.5 328,93" fill="#1c2128" stroke="#3d444d" stroke-width="1.5" stroke-linejoin="miter" stroke-miterlimit="4" />
      
      <rect x="328" y="99" width="50" height="14" rx="7" fill="#30363d" opacity="0.94" />
      <text x="353" y="109" text-anchor="middle" fill="#c9d1d9" font-size="8.2" font-weight="800" letter-spacing="0.7" font-family="var(--font-geist-mono), monospace">DECISION</text>
      
    <text x="401" y="135.4" text-anchor="middle" fill="#e6edf3" font-size="14" font-weight="700" font-family="var(--font-geist-sans), 'Noto Sans TC', 'Hiragino Sans', 'Yu Gothic', sans-serif">
      <tspan x="401" dy="0">OK?</tspan>
    </text>
  
      
    </g>
  </g><g data-node-id="Done"><g filter="url(#theme-filter)">
    <g>
      
    
    <g filter="url(#cardShadow)">
      <rect x="630" y="101.5" width="172" height="70" rx="14" fill="#21262d" opacity="0.65" />
      <rect x="624" y="102.5" width="172" height="70" rx="14" fill="#58a6ff" />
      <rect x="624" y="95.5" width="172" height="70" rx="14" fill="#1c2128" stroke="#58a6ff" stroke-width="1.2" />
      <rect x="630" y="101.5" width="160" height="58" rx="10" fill="#1c2128" opacity="0.78" />
      
    </g>
  
      
    <text x="710" y="135.5" text-anchor="middle" fill="#c9d1d9" font-size="14" font-weight="700" font-family="var(--font-geist-sans), 'Noto Sans TC', 'Hiragino Sans', 'Yu Gothic', sans-serif">
      <tspan x="710" dy="0">Done</tspan>
    </text>
  
    </g>
  </g></g>
      
    </svg>