<svg xmlns="http://www.w3.org/2000/svg" viewBox="49.0 -32.1 746.0 392.6" role="img" aria-label="Diagram render">
      <defs>
        <linearGradient id="surface" x1="0" y1="0" x2="0" y2="1">
          <stop offset="0%" stop-color="#ffffff" />
          <stop offset="100%" stop-color="#f7f7fb" />
        </linearGradient>
        <linearGradient id="entrySurface" x1="0" y1="0" x2="0" y2="1">
          <stop offset="0%" stop-color="#ffffff" />
          <stop offset="100%" stop-color="#f5f3ff" />
        </linearGradient>
        <linearGradient id="gateSurface" x1="0" y1="0" x2="0" y2="1">
          <stop offset="0%" stop-color="#ffffff" />
          <stop offset="100%" stop-color="#fdf2f8" />
        </linearGradient>
        
        <linearGradient id="mergeSurface" x1="0" y1="0" x2="0" y2="1">
          <stop offset="0%" stop-color="#ffffff" />
          <stop offset="100%" stop-color="#fdf2f8" />
        </linearGradient>
        <linearGradient id="secondarySurface" x1="0" y1="0" x2="0" y2="1">
          <stop offset="0%" stop-color="#ffffff" />
          <stop offset="100%" stop-color="#f5f3ff" />
        </linearGradient>
        <linearGradient id="primaryCardSurface" x1="0" y1="0" x2="0" y2="1">
          <stop offset="0%" stop-color="#ffffff" />
          <stop offset="100%" stop-color="#fdf2f8" />
        </linearGradient>
        <filter id="cardShadow" x="-20%" y="-20%" width="140%" height="140%">
          <feDropShadow dx="0" dy="4" stdDeviation="10" flood-color="#1a1f3a" flood-opacity="0.08" />
          <feDropShadow dx="0" dy="1" stdDeviation="4" flood-color="#1a1f3a" flood-opacity="0.04" />
        </filter>
        
        <filter id="theme-filter" x="-20%" y="-20%" width="140%" height="140%">
          <feDropShadow dx="0" dy="1" stdDeviation="2.2"
            flood-color="#1a1f3a"
            flood-opacity="0.05" />
        </filter>
        <marker id="arrowhead" markerWidth="10" markerHeight="10" refX="7" refY="3.5" orient="auto">
          <polygon points="0 0, 8 3.5, 0 7" fill="#1a1f3a" />
        </marker>
        <marker id="arrowhead-warm" markerWidth="10" markerHeight="10" refX="7" refY="3.5" orient="auto">
          <polygon points="0 0, 8 3.5, 0 7" fill="#10b981" />
        </marker>
        <marker id="arrowhead-cool" markerWidth="10" markerHeight="10" refX="7" refY="3.5" orient="auto">
          <polygon points="0 0, 8 3.5, 0 7" fill="#ef4444" />
        </marker>
        <marker id="arrowhead-bold" markerWidth="14" markerHeight="14" refX="13" refY="5.5" orient="auto">
          <polygon points="1 0, 13 5.5, 1 11" fill="#1a1f3a" />
        </marker>
        <marker id="chevron-cyan" viewBox="0 0 12 12" markerWidth="10" markerHeight="10" refX="8" refY="4" orient="auto">
          <path d="M 0 0 L 8 4 L 0 8" fill="none" stroke="#7dd3fc" stroke-width="2" stroke-linecap="round" stroke-linejoin="round" />
        </marker>
        <marker id="triangle-open" markerWidth="14" markerHeight="12" refX="10" refY="6" orient="auto">
          <path d="M 10 6 L 0 0 L 0 12 Z" fill="#ffffff" stroke="#1a1f3a" stroke-width="1.5" />
        </marker>
        <marker id="diamond-filled" markerWidth="14" markerHeight="12" refX="10" refY="6" orient="auto">
          <path d="M 0 6 L 5 1 L 10 6 L 5 11 Z" fill="#1a1f3a" stroke="#1a1f3a" stroke-width="1.2" />
        </marker>
        <marker id="diamond-open" markerWidth="14" markerHeight="12" refX="10" refY="6" orient="auto">
          <path d="M 0 6 L 5 1 L 10 6 L 5 11 Z" fill="#ffffff" stroke="#1a1f3a" stroke-width="1.2" />
        </marker>
        <marker id="er-oneone" markerWidth="18" markerHeight="18" refX="14" refY="9" orient="auto">
          <path d="M 4 2 V 16 M 10 2 V 16" stroke="#1a1f3a" stroke-width="1.5" />
        </marker>
        <marker id="er-onezero" markerWidth="24" markerHeight="18" refX="20" refY="9" orient="auto">
          <circle cx="5" cy="9" r="3.2" fill="#ffffff" stroke="#1a1f3a" stroke-width="1.2" />
          <path d="M 12 2 V 16" stroke="#1a1f3a" stroke-width="1.5" />
        </marker>
        <marker id="er-zeroone" markerWidth="24" markerHeight="18" refX="20" refY="9" orient="auto">
          <circle cx="5" cy="9" r="3.2" fill="#ffffff" stroke="#1a1f3a" stroke-width="1.2" />
          <path d="M 12 2 V 16" stroke="#1a1f3a" stroke-width="1.5" />
        </marker>
        <marker id="er-zeromany" markerWidth="28" markerHeight="18" refX="24" refY="9" orient="auto">
          <circle cx="5" cy="9" r="3.2" fill="#ffffff" stroke="#1a1f3a" stroke-width="1.2" />
          <path d="M 13 9 L 22 3 M 13 9 L 22 9 M 13 9 L 22 15" stroke="#1a1f3a" stroke-width="1.4" />
        </marker>
        <marker id="er-manyone" markerWidth="28" markerHeight="18" refX="24" refY="9" orient="auto">
          <path d="M 4 9 L 13 3 M 4 9 L 13 9 M 4 9 L 13 15" stroke="#1a1f3a" stroke-width="1.4" />
          <path d="M 18 2 V 16" stroke="#1a1f3a" stroke-width="1.5" />
        </marker>
        <marker id="er-manyzero" markerWidth="32" markerHeight="18" refX="28" refY="9" orient="auto">
          <path d="M 4 9 L 13 3 M 4 9 L 13 9 M 4 9 L 13 15" stroke="#1a1f3a" stroke-width="1.4" />
          <circle cx="20" cy="9" r="3.2" fill="#ffffff" stroke="#1a1f3a" stroke-width="1.2" />
        </marker>
        <marker id="er-onemany" markerWidth="28" markerHeight="18" refX="24" refY="9" orient="auto">
          <path d="M 4 2 V 16" stroke="#1a1f3a" stroke-width="1.5" />
          <path d="M 10 9 L 20 3 M 10 9 L 20 9 M 10 9 L 20 15" stroke="#1a1f3a" stroke-width="1.4" />
        </marker>
        <linearGradient id="bd-role-grad-entry" x1="0.8536" y1="0.1464" x2="0.1464" y2="0.8536"><stop offset="0%" stop-color="#7c3aed" /><stop offset="100%" stop-color="#ec4899" /></linearGradient><linearGradient id="bd-role-grad-primary" x1="0.5000" y1="0.0000" x2="0.5000" y2="1.0000"><stop offset="0%" stop-color="#ec4899" /><stop offset="100%" stop-color="#3b82f6" /></linearGradient><linearGradient id="bd-role-grad-outcome" x1="0.8536" y1="0.1464" x2="0.1464" y2="0.8536"><stop offset="0%" stop-color="#ec4899" /><stop offset="100%" stop-color="#7c3aed" /></linearGradient><linearGradient id="bd-role-grad-gate" x1="0.5000" y1="0.0000" x2="0.5000" y2="1.0000"><stop offset="0%" stop-color="#ec4899" /><stop offset="100%" stop-color="#f59e0b" /></linearGradient>
        
        
        
      </defs>

        <defs>
          <linearGradient id="bg-grad" x1="0" y1="0" x2="1" y2="1">
            <stop offset="0%" stop-color="#ffffff" />
            <stop offset="100%" stop-color="#f7f7fb" />
          </linearGradient>
          <pattern id="dot-grid" x="0" y="0" width="40" height="40" patternUnits="userSpaceOnUse">
            <circle cx="20" cy="20" r="1.1" fill="rgba(26,31,58,0.1)" />
          </pattern>
        </defs>
        <rect x="49" y="-32.1" width="746" height="392.6" fill="url(#bg-grad)" />
        <rect x="49" y="-32.1" width="746" height="392.6" fill="url(#dot-grid)" />
      
        <g data-edge-id="edge-2">
    <g>
      <path d="M 339.900 172.700 L 310.045 227.917 Q 308 231.700 308 236 L 308 236 Q 308 240.300 312.281 240.701 L 383.078 247.323 Q 401 249 418.922 247.323 L 489.719 240.701 Q 494 240.300 494 236 L 494 236 Q 494 231.700 491.955 227.917 L 462.100 172.700" fill="none" stroke="#1a1f3a" stroke-width="1.8752" stroke-linecap="round" stroke-linejoin="round" marker-end="url(#arrowhead)" opacity="1" />
      <g><rect x="350.1" y="239.0" width="101.8" height="20.0" rx="10.0" ry="10.0" fill="#ffffff" stroke="rgba(91, 71, 194, 0.28)" stroke-width="1" /><text x="401" y="252.5" text-anchor="middle" fill="#1a1f3a" font-size="12" font-weight="600" font-family="var(--font-geist-sans), 'Noto Sans TC', 'Hiragino Sans', 'Yu Gothic', sans-serif">&gt;|No| Retry</text></g>
      
    </g>
  </g><g data-edge-id="edge-1">
    <g>
      <path d="M 494.0 130.5 C 519.8 130.5, 623.2 130.5, 649.0 130.5" fill="none" stroke="#10b981" stroke-width="1.8752" stroke-linecap="round" stroke-linejoin="round" marker-end="url(#arrowhead-warm)" opacity="1" />
      <g><rect x="550.3" y="120.5" width="42.3" height="20.0" rx="10.0" ry="10.0" fill="#ffffff" stroke="rgba(91, 71, 194, 0.28)" stroke-width="1" /><text x="571.5" y="134.0" text-anchor="middle" fill="#1a1f3a" font-size="12" font-weight="600" font-family="var(--font-geist-sans), 'Noto Sans TC', 'Hiragino Sans', 'Yu Gothic', sans-serif">Yes</text></g>
      
    </g>
  </g><g data-edge-id="edge-0">
    <g>
      <path d="M 195.0 130.5 C 213.8 130.5, 289.2 130.5, 308.0 130.5" fill="none" stroke="#1a1f3a" stroke-width="1.6" stroke-linecap="round" stroke-linejoin="round" marker-end="url(#arrowhead)" opacity="0.82" />
      
      
    </g>
  </g>
      
      <g data-node-id="Start"><g><circle cx="134" cy="130.5" r="61" fill="#ffffff" stroke="url(#bd-role-grad-entry)" stroke-width="1.6" /><text x="134" y="133.7" text-anchor="middle" fill="#1a1f3a" font-size="12" font-weight="600" font-family="var(--font-geist-sans), 'Noto Sans TC', 'Hiragino Sans', 'Yu Gothic', sans-serif"><tspan x="134" dy="0">Start</tspan></text></g></g><g data-node-id="Check">
    <g filter="url(#cardShadow)" data-node-variant="decision-panel">
      <polygon points="401,64 474,93 494,130.5 474,168 401,197 328,168 308,130.5 328,93" fill="#fdf2f8" opacity="0.34" transform="translate(8 8)" />
      
      <polygon points="401,64 474,93 494,130.5 474,168 401,197 328,168 308,130.5 328,93" fill="#ffffff" stroke="url(#bd-role-grad-gate)" stroke-width="1.6" stroke-linejoin="miter" stroke-miterlimit="4" />
      
      <rect x="328" y="99" width="50" height="14" rx="7" fill="#ec4899" opacity="0.94" />
      <text x="353" y="109" text-anchor="middle" fill="#ffffff" font-size="8.2" font-weight="800" letter-spacing="0.7" font-family="var(--font-geist-mono), monospace">DECISION</text>
      
    <text x="401" y="135.4" text-anchor="middle" fill="#1a1f3a" font-size="14" font-weight="600" font-family="var(--font-geist-sans), 'Noto Sans TC', 'Hiragino Sans', 'Yu Gothic', sans-serif">
      <tspan x="401" dy="0">OK?</tspan>
    </text>
  
      
    </g>
  </g><g data-node-id="Done"><g><circle cx="710" cy="130.5" r="61" fill="#ffffff" stroke="url(#bd-role-grad-outcome)" stroke-width="1.6" /><text x="710" y="133.7" text-anchor="middle" fill="#1a1f3a" font-size="12" font-weight="600" font-family="var(--font-geist-sans), 'Noto Sans TC', 'Hiragino Sans', 'Yu Gothic', sans-serif"><tspan x="710" dy="0">Done</tspan></text></g></g>
      
    </svg>