<svg xmlns="http://www.w3.org/2000/svg" viewBox="-18.0 -87.5 838.0 441.1" role="img" aria-label="Diagram render">
      <defs>
        <linearGradient id="surface" x1="0" y1="0" x2="0" y2="1">
          <stop offset="0%" stop-color="#ffffff" />
          <stop offset="100%" stop-color="#ffffff" />
        </linearGradient>
        <linearGradient id="entrySurface" x1="0" y1="0" x2="0" y2="1">
          <stop offset="0%" stop-color="#ffffff" />
          <stop offset="100%" stop-color="#fafafa" />
        </linearGradient>
        <linearGradient id="gateSurface" x1="0" y1="0" x2="0" y2="1">
          <stop offset="0%" stop-color="#1a1f3a" />
          <stop offset="100%" stop-color="#1a1f3a" />
        </linearGradient>
        
        <linearGradient id="mergeSurface" x1="0" y1="0" x2="0" y2="1">
          <stop offset="0%" stop-color="#ffffff" />
          <stop offset="100%" stop-color="#ecfdf5" />
        </linearGradient>
        <linearGradient id="secondarySurface" x1="0" y1="0" x2="0" y2="1">
          <stop offset="0%" stop-color="#ffffff" />
          <stop offset="100%" stop-color="#fafafa" />
        </linearGradient>
        <linearGradient id="primaryCardSurface" x1="0" y1="0" x2="0" y2="1">
          <stop offset="0%" stop-color="#ffffff" />
          <stop offset="100%" stop-color="#fafafa" />
        </linearGradient>
        <filter id="cardShadow" x="-20%" y="-20%" width="140%" height="140%">
          <feDropShadow dx="0" dy="3" stdDeviation="8" flood-color="#1a1f3a" flood-opacity="0.06" />
          <feDropShadow dx="0" dy="1" stdDeviation="3" flood-color="#1a1f3a" flood-opacity="0.03" />
        </filter>
        
        <marker id="arrowhead" markerWidth="10" markerHeight="10" refX="7" refY="3.5" orient="auto">
          <polygon points="0 0, 8 3.5, 0 7" fill="#1a1f3a" />
        </marker>
        <marker id="arrowhead-warm" markerWidth="10" markerHeight="10" refX="7" refY="3.5" orient="auto">
          <polygon points="0 0, 8 3.5, 0 7" fill="#047857" />
        </marker>
        <marker id="arrowhead-cool" markerWidth="10" markerHeight="10" refX="7" refY="3.5" orient="auto">
          <polygon points="0 0, 8 3.5, 0 7" fill="#b91c1c" />
        </marker>
        <marker id="arrowhead-bold" markerWidth="14" markerHeight="14" refX="13" refY="5.5" orient="auto">
          <polygon points="1 0, 13 5.5, 1 11" fill="#1a1f3a" />
        </marker>
        <marker id="chevron-cyan" viewBox="0 0 12 12" markerWidth="10" markerHeight="10" refX="8" refY="4" orient="auto">
          <path d="M 0 0 L 8 4 L 0 8" fill="none" stroke="#7dd3fc" stroke-width="2" stroke-linecap="round" stroke-linejoin="round" />
        </marker>
        <marker id="triangle-open" markerWidth="14" markerHeight="12" refX="10" refY="6" orient="auto">
          <path d="M 10 6 L 0 0 L 0 12 Z" fill="#ffffff" stroke="#1a1f3a" stroke-width="1.5" />
        </marker>
        <marker id="diamond-filled" markerWidth="14" markerHeight="12" refX="10" refY="6" orient="auto">
          <path d="M 0 6 L 5 1 L 10 6 L 5 11 Z" fill="#1a1f3a" stroke="#1a1f3a" stroke-width="1.2" />
        </marker>
        <marker id="diamond-open" markerWidth="14" markerHeight="12" refX="10" refY="6" orient="auto">
          <path d="M 0 6 L 5 1 L 10 6 L 5 11 Z" fill="#ffffff" stroke="#1a1f3a" stroke-width="1.2" />
        </marker>
        <marker id="er-oneone" markerWidth="18" markerHeight="18" refX="14" refY="9" orient="auto">
          <path d="M 4 2 V 16 M 10 2 V 16" stroke="#1a1f3a" stroke-width="1.5" />
        </marker>
        <marker id="er-onezero" markerWidth="24" markerHeight="18" refX="20" refY="9" orient="auto">
          <circle cx="5" cy="9" r="3.2" fill="#ffffff" stroke="#1a1f3a" stroke-width="1.2" />
          <path d="M 12 2 V 16" stroke="#1a1f3a" stroke-width="1.5" />
        </marker>
        <marker id="er-zeroone" markerWidth="24" markerHeight="18" refX="20" refY="9" orient="auto">
          <circle cx="5" cy="9" r="3.2" fill="#ffffff" stroke="#1a1f3a" stroke-width="1.2" />
          <path d="M 12 2 V 16" stroke="#1a1f3a" stroke-width="1.5" />
        </marker>
        <marker id="er-zeromany" markerWidth="28" markerHeight="18" refX="24" refY="9" orient="auto">
          <circle cx="5" cy="9" r="3.2" fill="#ffffff" stroke="#1a1f3a" stroke-width="1.2" />
          <path d="M 13 9 L 22 3 M 13 9 L 22 9 M 13 9 L 22 15" stroke="#1a1f3a" stroke-width="1.4" />
        </marker>
        <marker id="er-manyone" markerWidth="28" markerHeight="18" refX="24" refY="9" orient="auto">
          <path d="M 4 9 L 13 3 M 4 9 L 13 9 M 4 9 L 13 15" stroke="#1a1f3a" stroke-width="1.4" />
          <path d="M 18 2 V 16" stroke="#1a1f3a" stroke-width="1.5" />
        </marker>
        <marker id="er-manyzero" markerWidth="32" markerHeight="18" refX="28" refY="9" orient="auto">
          <path d="M 4 9 L 13 3 M 4 9 L 13 9 M 4 9 L 13 15" stroke="#1a1f3a" stroke-width="1.4" />
          <circle cx="20" cy="9" r="3.2" fill="#ffffff" stroke="#1a1f3a" stroke-width="1.2" />
        </marker>
        <marker id="er-onemany" markerWidth="28" markerHeight="18" refX="24" refY="9" orient="auto">
          <path d="M 4 2 V 16" stroke="#1a1f3a" stroke-width="1.5" />
          <path d="M 10 9 L 20 3 M 10 9 L 20 9 M 10 9 L 20 15" stroke="#1a1f3a" stroke-width="1.4" />
        </marker>
        
        <pattern id="bd-blueprint-hatch-ink" width="5" height="5" patternUnits="userSpaceOnUse" patternTransform="rotate(45)"><line x1="0" y1="0" x2="0" y2="5" stroke="#1a1f3a" stroke-width="0.5" opacity="0.5" /></pattern><pattern id="bd-blueprint-hatch-success" width="5" height="5" patternUnits="userSpaceOnUse" patternTransform="rotate(45)"><line x1="0" y1="0" x2="0" y2="5" stroke="#047857" stroke-width="0.5" opacity="0.5" /></pattern><pattern id="bd-blueprint-hatch-error" width="5" height="5" patternUnits="userSpaceOnUse" patternTransform="rotate(45)"><line x1="0" y1="0" x2="0" y2="5" stroke="#b91c1c" stroke-width="0.5" opacity="0.5" /></pattern>
        
        
      </defs>

        <defs>
          <linearGradient id="bg-grad" x1="0" y1="0" x2="1" y2="1">
            <stop offset="0%" stop-color="#ffffff" />
            <stop offset="100%" stop-color="#ffffff" />
          </linearGradient>
          <pattern id="line-grid" x="0" y="0" width="32" height="32" patternUnits="userSpaceOnUse">
            <path d="M 32 0 L 0 0 0 32" fill="none" stroke="#1a1f3a" stroke-width="0.6" opacity="0.18" />
          </pattern>
        </defs>
        <rect x="-18" y="-87.5" width="838" height="441.1" fill="url(#bg-grad)" />
        <rect x="-18" y="-87.5" width="838" height="441.1" fill="url(#line-grid)" />
      
        <g data-edge-id="edge-2">
    <g>
      <path d="M 389.500 143 L 310.909 228.534 Q 308 231.700 308 236 L 308 236 Q 308 240.300 312.281 240.701 L 383.078 247.323 Q 401 249 418.922 247.323 L 489.719 240.701 Q 494 240.300 494 236 L 494 236 Q 494 231.700 491.091 228.534 L 412.500 143" fill="none" stroke="#1a1f3a" stroke-width="1.4063999999999999" stroke-linecap="round" stroke-linejoin="round" marker-end="url(#arrowhead)" opacity="1" />
      <g><rect x="350.1" y="239.0" width="101.8" height="20.0" rx="10.0" ry="10.0" fill="#ffffff" stroke="rgba(91, 71, 194, 0.28)" stroke-width="1" /><text x="401" y="252.5" text-anchor="middle" fill="#1a1f3a" font-size="12" font-weight="600" font-family="var(--font-geist-sans), 'Noto Sans TC', 'Hiragino Sans', 'Yu Gothic', sans-serif">&gt;|No| Retry</text></g>
      
    </g>
  </g><g data-edge-id="edge-1">
    <g>
      <path d="M 418.0 130.5 C 452.3 130.5, 589.7 130.5, 624.0 130.5" fill="none" stroke="#047857" stroke-width="1.4063999999999999" stroke-linecap="round" stroke-linejoin="round" marker-end="url(#arrowhead-warm)" opacity="1" />
      <g><rect x="499.8" y="120.5" width="42.3" height="20.0" rx="10.0" ry="10.0" fill="#ffffff" stroke="rgba(91, 71, 194, 0.28)" stroke-width="1" /><text x="521" y="134.0" text-anchor="middle" fill="#1a1f3a" font-size="12" font-weight="600" font-family="var(--font-geist-sans), 'Noto Sans TC', 'Hiragino Sans', 'Yu Gothic', sans-serif">Yes</text></g>
      
    </g>
  </g><g data-edge-id="edge-0">
    <g>
      <path d="M 220.0 130.5 C 247.3 130.5, 356.7 130.5, 384.0 130.5" fill="none" stroke="#1a1f3a" stroke-width="1.2" stroke-linecap="round" stroke-linejoin="round" marker-end="url(#arrowhead)" opacity="0.82" />
      
      
    </g>
  </g>
      
      <g data-node-id="Start"><g><rect x="48" y="95.5" width="172" height="70" fill="#ffffff" stroke="#1a1f3a" stroke-width="1.4" rx="0" ry="0" /><rect x="48" y="95.5" width="55.04" height="70" fill="url(#bd-blueprint-hatch-ink)" /><line x1="103.03999999999999" y1="95.5" x2="103.03999999999999" y2="165.5" stroke="#1a1f3a" stroke-width="0.8" opacity="0.75" /><g transform="translate(61.76,116.74) scale(1.1467)"><path d="M9 7 L17 12 L9 17 Z" fill="none" stroke="#1a1f3a" stroke-width="1.2209" stroke-linecap="round" stroke-linejoin="round" /></g><text x="117.03999999999999" y="112.5" fill="#1a1f3a" font-size="10.5" font-family="var(--font-geist-mono), monospace" letter-spacing="0.08em">ENTRY</text><line x1="117.03999999999999" y1="117.5" x2="206" y2="117.5" stroke="#1a1f3a" stroke-width="0.5" opacity="0.6" /><text x="117.03999999999999" y="135.5" fill="#1a1f3a" font-size="17" font-weight="600" font-family="var(--font-geist-sans), 'Noto Sans TC', 'Hiragino Sans', 'Yu Gothic', sans-serif"><tspan x="117.03999999999999" dy="0">Start</tspan></text></g></g><g data-node-id="Check"><g><circle cx="401" cy="130.5" r="16" fill="none" stroke="#1a1f3a" stroke-width="0.8" stroke-dasharray="3 2" opacity="0.7" /><circle cx="401" cy="130.5" r="7" fill="#1a1f3a" stroke="none" stroke-width="0" /><text x="415" y="126.5" fill="#1a1f3a" font-size="9.5" font-family="var(--font-geist-mono), monospace" letter-spacing="0.08em" opacity="0.75">DECISION</text><line x1="415" y1="129.5" x2="451" y2="129.5" stroke="#1a1f3a" stroke-width="0.5" opacity="0.5" /><text x="415" y="140.5" fill="#1a1f3a" font-size="12" font-weight="600" font-family="var(--font-geist-mono), monospace">OK?</text></g></g><g data-node-id="Done"><g><rect x="624" y="95.5" width="172" height="70" fill="#ffffff" stroke="#047857" stroke-width="1.4" rx="0" ry="0" /><rect x="624" y="95.5" width="55.04" height="70" fill="url(#bd-blueprint-hatch-success)" /><line x1="679.04" y1="95.5" x2="679.04" y2="165.5" stroke="#047857" stroke-width="0.8" opacity="0.75" /><g transform="translate(637.76,116.74) scale(1.1467)"><path d="M6 12.5 L10 16.5 L18 8" fill="none" stroke="#047857" stroke-width="1.2209" stroke-linecap="round" stroke-linejoin="round" /></g><text x="693.04" y="112.5" fill="#047857" font-size="10.5" font-family="var(--font-geist-mono), monospace" letter-spacing="0.08em">OUTCOME</text><line x1="693.04" y1="117.5" x2="782" y2="117.5" stroke="#047857" stroke-width="0.5" opacity="0.6" /><text x="693.04" y="135.5" fill="#047857" font-size="17" font-weight="600" font-family="var(--font-geist-sans), 'Noto Sans TC', 'Hiragino Sans', 'Yu Gothic', sans-serif"><tspan x="693.04" dy="0">Done</tspan></text></g></g>
      
    </svg>