<svg xmlns="http://www.w3.org/2000/svg" viewBox="19.0 -87.3 962.3 506.5" role="img" aria-label="Diagram render">
      <defs>
        <linearGradient id="surface" x1="0" y1="0" x2="0" y2="1">
          <stop offset="0%" stop-color="#f6f0d8" />
          <stop offset="100%" stop-color="#fbf6df" />
        </linearGradient>
        <linearGradient id="entrySurface" x1="0" y1="0" x2="0" y2="1">
          <stop offset="0%" stop-color="#1d3a73" />
          <stop offset="100%" stop-color="#1d3a73" />
        </linearGradient>
        <linearGradient id="gateSurface" x1="0" y1="0" x2="0" y2="1">
          <stop offset="0%" stop-color="#f7c948" />
          <stop offset="100%" stop-color="#f7c948" />
        </linearGradient>
        
        <linearGradient id="mergeSurface" x1="0" y1="0" x2="0" y2="1">
          <stop offset="0%" stop-color="#e23d3d" />
          <stop offset="100%" stop-color="#e23d3d" />
        </linearGradient>
        <linearGradient id="secondarySurface" x1="0" y1="0" x2="0" y2="1">
          <stop offset="0%" stop-color="#f7c948" />
          <stop offset="100%" stop-color="#f7c948" />
        </linearGradient>
        <linearGradient id="primaryCardSurface" x1="0" y1="0" x2="0" y2="1">
          <stop offset="0%" stop-color="#1d3a73" />
          <stop offset="100%" stop-color="#1d3a73" />
        </linearGradient>
        <filter id="cardShadow" x="-20%" y="-20%" width="140%" height="140%">
          <feDropShadow dx="0" dy="5" stdDeviation="0" flood-color="#0f172a" flood-opacity="0.95" />
          <feDropShadow dx="0" dy="2" stdDeviation="0" flood-color="#0f172a" flood-opacity="0" />
        </filter>
        
        <marker id="arrowhead" markerWidth="10" markerHeight="10" refX="7" refY="3.5" orient="auto">
          <polygon points="0 0, 8 3.5, 0 7" fill="#0f172a" />
        </marker>
        <marker id="arrowhead-warm" markerWidth="10" markerHeight="10" refX="7" refY="3.5" orient="auto">
          <polygon points="0 0, 8 3.5, 0 7" fill="#0f172a" />
        </marker>
        <marker id="arrowhead-cool" markerWidth="10" markerHeight="10" refX="7" refY="3.5" orient="auto">
          <polygon points="0 0, 8 3.5, 0 7" fill="#0f172a" />
        </marker>
        <marker id="arrowhead-bold" markerWidth="14" markerHeight="14" refX="13" refY="5.5" orient="auto">
          <polygon points="1 0, 13 5.5, 1 11" fill="#0f172a" />
        </marker>
        <marker id="chevron-cyan" viewBox="0 0 12 12" markerWidth="10" markerHeight="10" refX="8" refY="4" orient="auto">
          <path d="M 0 0 L 8 4 L 0 8" fill="none" stroke="#7dd3fc" stroke-width="2" stroke-linecap="round" stroke-linejoin="round" />
        </marker>
        <marker id="triangle-open" markerWidth="14" markerHeight="12" refX="10" refY="6" orient="auto">
          <path d="M 10 6 L 0 0 L 0 12 Z" fill="#f5edd1" stroke="#0f172a" stroke-width="1.5" />
        </marker>
        <marker id="diamond-filled" markerWidth="14" markerHeight="12" refX="10" refY="6" orient="auto">
          <path d="M 0 6 L 5 1 L 10 6 L 5 11 Z" fill="#0f172a" stroke="#0f172a" stroke-width="1.2" />
        </marker>
        <marker id="diamond-open" markerWidth="14" markerHeight="12" refX="10" refY="6" orient="auto">
          <path d="M 0 6 L 5 1 L 10 6 L 5 11 Z" fill="#f5edd1" stroke="#0f172a" stroke-width="1.2" />
        </marker>
        <marker id="er-oneone" markerWidth="18" markerHeight="18" refX="14" refY="9" orient="auto">
          <path d="M 4 2 V 16 M 10 2 V 16" stroke="#0f172a" stroke-width="1.5" />
        </marker>
        <marker id="er-onezero" markerWidth="24" markerHeight="18" refX="20" refY="9" orient="auto">
          <circle cx="5" cy="9" r="3.2" fill="#f5edd1" stroke="#0f172a" stroke-width="1.2" />
          <path d="M 12 2 V 16" stroke="#0f172a" stroke-width="1.5" />
        </marker>
        <marker id="er-zeroone" markerWidth="24" markerHeight="18" refX="20" refY="9" orient="auto">
          <circle cx="5" cy="9" r="3.2" fill="#f5edd1" stroke="#0f172a" stroke-width="1.2" />
          <path d="M 12 2 V 16" stroke="#0f172a" stroke-width="1.5" />
        </marker>
        <marker id="er-zeromany" markerWidth="28" markerHeight="18" refX="24" refY="9" orient="auto">
          <circle cx="5" cy="9" r="3.2" fill="#f5edd1" stroke="#0f172a" stroke-width="1.2" />
          <path d="M 13 9 L 22 3 M 13 9 L 22 9 M 13 9 L 22 15" stroke="#0f172a" stroke-width="1.4" />
        </marker>
        <marker id="er-manyone" markerWidth="28" markerHeight="18" refX="24" refY="9" orient="auto">
          <path d="M 4 9 L 13 3 M 4 9 L 13 9 M 4 9 L 13 15" stroke="#0f172a" stroke-width="1.4" />
          <path d="M 18 2 V 16" stroke="#0f172a" stroke-width="1.5" />
        </marker>
        <marker id="er-manyzero" markerWidth="32" markerHeight="18" refX="28" refY="9" orient="auto">
          <path d="M 4 9 L 13 3 M 4 9 L 13 9 M 4 9 L 13 15" stroke="#0f172a" stroke-width="1.4" />
          <circle cx="20" cy="9" r="3.2" fill="#f5edd1" stroke="#0f172a" stroke-width="1.2" />
        </marker>
        <marker id="er-onemany" markerWidth="28" markerHeight="18" refX="24" refY="9" orient="auto">
          <path d="M 4 2 V 16" stroke="#0f172a" stroke-width="1.5" />
          <path d="M 10 9 L 20 3 M 10 9 L 20 9 M 10 9 L 20 15" stroke="#0f172a" stroke-width="1.4" />
        </marker>
        
        
        
        
      </defs>

        <defs>
          <linearGradient id="bg-grad" x1="0" y1="0" x2="1" y2="1">
            <stop offset="0%" stop-color="#f6f0d8" />
            <stop offset="100%" stop-color="#fbf6df" />
          </linearGradient>
        </defs>
        <rect x="19" y="-87.3" width="962.3" height="506.5" fill="url(#bg-grad)" />
        <g transform="translate(19 -87.3)"><g id="bd-confetti" pointer-events="none"><rect transform="rotate(190 820.3 339.2)" x="806.3" y="325.2" width="28" height="28" fill="#0f172a" /><polygon transform="rotate(318 832.8 239.2)" points="832.8,223.7 848.3,254.7 817.3,254.7" fill="#e23d3d" /><circle cx="189.8" cy="253.6" r="20.0" fill="#f7c948" /><rect transform="rotate(11 805.8 25.9)" x="784.3" y="4.4" width="43" height="43" fill="#1d3a73" /><g transform="rotate(10 178.7 396.9)"><circle cx="197.1" cy="396.9" r="2.9" fill="#ef9a9a" /><circle cx="191.7" cy="409.9" r="2.9" fill="#ef9a9a" /><circle cx="178.7" cy="415.3" r="2.9" fill="#ef9a9a" /><circle cx="165.6" cy="409.9" r="2.9" fill="#ef9a9a" /><circle cx="160.2" cy="396.9" r="2.9" fill="#ef9a9a" /><circle cx="165.6" cy="383.8" r="2.9" fill="#ef9a9a" /><circle cx="178.7" cy="378.4" r="2.9" fill="#ef9a9a" /><circle cx="191.7" cy="383.8" r="2.9" fill="#ef9a9a" /></g><g transform="rotate(19 307.4 227.9)" clip-path="inset(0)"><rect x="295.9" y="216.4" width="23" height="23" fill="none" stroke="#0f172a" stroke-width="1.5" /><line x1="295.9" y1="216.4" x2="318.9" y2="239.4" stroke="#0f172a" stroke-width="1.2" /><line x1="301.9" y1="216.4" x2="324.9" y2="239.4" stroke="#0f172a" stroke-width="1.2" /><line x1="307.9" y1="216.4" x2="330.9" y2="239.4" stroke="#0f172a" stroke-width="1.2" /><line x1="313.9" y1="216.4" x2="336.9" y2="239.4" stroke="#0f172a" stroke-width="1.2" /></g><polygon transform="rotate(109 235.9 327.0)" points="235.9,312.0 250.9,342.0 220.9,342.0" fill="#ef9a9a" /><polygon transform="rotate(238 273.5 148.4)" points="273.5,135.9 286.0,160.9 261.0,160.9" fill="#2fb675" /><g transform="rotate(155 892.9 44.6)"><circle cx="874.2" cy="25.9" r="3.9" fill="#1d3a73" /><circle cx="892.9" cy="25.9" r="3.9" fill="#1d3a73" /><circle cx="911.5" cy="25.9" r="3.9" fill="#1d3a73" /><circle cx="874.2" cy="44.6" r="3.9" fill="#1d3a73" /><circle cx="892.9" cy="44.6" r="3.9" fill="#1d3a73" /><circle cx="911.5" cy="44.6" r="3.9" fill="#1d3a73" /><circle cx="874.2" cy="63.2" r="3.9" fill="#1d3a73" /><circle cx="892.9" cy="63.2" r="3.9" fill="#1d3a73" /><circle cx="911.5" cy="63.2" r="3.9" fill="#1d3a73" /></g><g transform="rotate(173 106.8 8.0)" clip-path="inset(0)"><rect x="89.3" y="-9.5" width="35" height="35" fill="none" stroke="#ef9a9a" stroke-width="1.5" /><line x1="89.3" y1="-9.5" x2="124.3" y2="25.5" stroke="#ef9a9a" stroke-width="1.2" /><line x1="95.3" y1="-9.5" x2="130.3" y2="25.5" stroke="#ef9a9a" stroke-width="1.2" /><line x1="101.3" y1="-9.5" x2="136.3" y2="25.5" stroke="#ef9a9a" stroke-width="1.2" /><line x1="107.3" y1="-9.5" x2="142.3" y2="25.5" stroke="#ef9a9a" stroke-width="1.2" /><line x1="113.3" y1="-9.5" x2="148.3" y2="25.5" stroke="#ef9a9a" stroke-width="1.2" /><line x1="119.3" y1="-9.5" x2="154.3" y2="25.5" stroke="#ef9a9a" stroke-width="1.2" /></g><polygon transform="rotate(100 74.7 364.5)" points="74.7,336.5 102.7,392.5 46.7,392.5" fill="#e23d3d" /><g transform="rotate(358 500.7 416.3)" clip-path="inset(0)"><rect x="487.7" y="403.3" width="26" height="26" fill="none" stroke="#ef9a9a" stroke-width="1.5" /><line x1="487.7" y1="403.3" x2="513.7" y2="429.3" stroke="#ef9a9a" stroke-width="1.2" /><line x1="493.7" y1="403.3" x2="519.7" y2="429.3" stroke="#ef9a9a" stroke-width="1.2" /><line x1="499.7" y1="403.3" x2="525.7" y2="429.3" stroke="#ef9a9a" stroke-width="1.2" /><line x1="505.7" y1="403.3" x2="531.7" y2="429.3" stroke="#ef9a9a" stroke-width="1.2" /><line x1="511.7" y1="403.3" x2="537.7" y2="429.3" stroke="#ef9a9a" stroke-width="1.2" /></g><rect transform="rotate(263 324.3 302.0)" x="307.3" y="285.0" width="34" height="34" fill="#f7c948" /><rect transform="rotate(196 956.5 450.9)" x="937.5" y="431.9" width="38" height="38" fill="#1d3a73" /><circle cx="670.5" cy="158.7" r="21.3" fill="#f7c948" /><g transform="rotate(252 936.1 90.4)"><circle cx="957.7" cy="90.4" r="3.4" fill="#f7c948" /><circle cx="951.3" cy="105.6" r="3.4" fill="#f7c948" /><circle cx="936.1" cy="112.0" r="3.4" fill="#f7c948" /><circle cx="920.8" cy="105.6" r="3.4" fill="#f7c948" /><circle cx="914.5" cy="90.4" r="3.4" fill="#f7c948" /><circle cx="920.8" cy="75.1" r="3.4" fill="#f7c948" /><circle cx="936.1" cy="68.8" r="3.4" fill="#f7c948" /><circle cx="951.3" cy="75.1" r="3.4" fill="#f7c948" /></g><polygon transform="rotate(75 157.3 331.6)" points="157.3,314.6 174.3,348.6 140.3,348.6" fill="#ef9a9a" /><path transform="rotate(47 314.1 401.4)" d="M 296.1 394.9 L 305.1 407.8 L 314.1 394.9 L 323.1 407.8 L 332.1 394.9" fill="none" stroke="#f7c948" stroke-width="2" stroke-linecap="round" /><g transform="rotate(315 9.2 373.5)"><circle cx="-5.8" cy="358.5" r="3.2" fill="#e23d3d" /><circle cx="9.2" cy="358.5" r="3.2" fill="#e23d3d" /><circle cx="24.2" cy="358.5" r="3.2" fill="#e23d3d" /><circle cx="-5.8" cy="373.5" r="3.2" fill="#e23d3d" /><circle cx="9.2" cy="373.5" r="3.2" fill="#e23d3d" /><circle cx="24.2" cy="373.5" r="3.2" fill="#e23d3d" /><circle cx="-5.8" cy="388.5" r="3.2" fill="#e23d3d" /><circle cx="9.2" cy="388.5" r="3.2" fill="#e23d3d" /><circle cx="24.2" cy="388.5" r="3.2" fill="#e23d3d" /></g><rect transform="rotate(255 177.1 24.0)" x="153.6" y="0.5" width="47" height="47" fill="#e23d3d" /><g transform="rotate(358 323.9 14.7)" clip-path="inset(0)"><rect x="308.9" y="-0.3" width="30" height="30" fill="none" stroke="#ef9a9a" stroke-width="1.5" /><line x1="308.9" y1="-0.3" x2="338.9" y2="29.7" stroke="#ef9a9a" stroke-width="1.2" /><line x1="314.9" y1="-0.3" x2="344.9" y2="29.7" stroke="#ef9a9a" stroke-width="1.2" /><line x1="320.9" y1="-0.3" x2="350.9" y2="29.7" stroke="#ef9a9a" stroke-width="1.2" /><line x1="326.9" y1="-0.3" x2="356.9" y2="29.7" stroke="#ef9a9a" stroke-width="1.2" /><line x1="332.9" y1="-0.3" x2="362.9" y2="29.7" stroke="#ef9a9a" stroke-width="1.2" /><line x1="338.9" y1="-0.3" x2="368.9" y2="29.7" stroke="#ef9a9a" stroke-width="1.2" /></g><g transform="rotate(105 157.7 86.5)"><rect x="136.7" y="65.5" width="42" height="42" fill="none" stroke="#f7c948" stroke-width="1.5" /><line x1="147.2" y1="65.5" x2="147.2" y2="107.5" stroke="#f7c948" stroke-width="1.2" /><line x1="136.7" y1="76.0" x2="178.7" y2="76.0" stroke="#f7c948" stroke-width="1.2" /><line x1="157.7" y1="65.5" x2="157.7" y2="107.5" stroke="#f7c948" stroke-width="1.2" /><line x1="136.7" y1="86.5" x2="178.7" y2="86.5" stroke="#f7c948" stroke-width="1.2" /><line x1="168.2" y1="65.5" x2="168.2" y2="107.5" stroke="#f7c948" stroke-width="1.2" /><line x1="136.7" y1="97.0" x2="178.7" y2="97.0" stroke="#f7c948" stroke-width="1.2" /></g><g transform="rotate(220 861.9 165.8)" clip-path="inset(0)"><rect x="841.9" y="145.8" width="40" height="40" fill="none" stroke="#0f172a" stroke-width="1.5" /><line x1="841.9" y1="145.8" x2="881.9" y2="185.8" stroke="#0f172a" stroke-width="1.2" /><line x1="847.9" y1="145.8" x2="887.9" y2="185.8" stroke="#0f172a" stroke-width="1.2" /><line x1="853.9" y1="145.8" x2="893.9" y2="185.8" stroke="#0f172a" stroke-width="1.2" /><line x1="859.9" y1="145.8" x2="899.9" y2="185.8" stroke="#0f172a" stroke-width="1.2" /><line x1="865.9" y1="145.8" x2="905.9" y2="185.8" stroke="#0f172a" stroke-width="1.2" /><line x1="871.9" y1="145.8" x2="911.9" y2="185.8" stroke="#0f172a" stroke-width="1.2" /><line x1="877.9" y1="145.8" x2="917.9" y2="185.8" stroke="#0f172a" stroke-width="1.2" /></g></g></g>
      
        <g transform="translate(-50 -50)"><g id="bd-confetti" pointer-events="none"><rect transform="rotate(190 804.7 241.8)" x="790.7" y="227.8" width="28" height="28" fill="#0f172a" /><polygon transform="rotate(318 817.0 170.5)" points="817.0,155.0 832.5,186.0 801.5,186.0" fill="#e23d3d" /><circle cx="186.2" cy="180.8" r="20.0" fill="#f7c948" /><rect transform="rotate(11 790.4 18.5)" x="768.9" y="-3.0" width="43" height="43" fill="#1d3a73" /><g transform="rotate(10 175.3 282.9)"><circle cx="193.7" cy="282.9" r="2.9" fill="#ef9a9a" /><circle cx="188.3" cy="295.9" r="2.9" fill="#ef9a9a" /><circle cx="175.3" cy="301.3" r="2.9" fill="#ef9a9a" /><circle cx="162.2" cy="295.9" r="2.9" fill="#ef9a9a" /><circle cx="156.8" cy="282.9" r="2.9" fill="#ef9a9a" /><circle cx="162.2" cy="269.8" r="2.9" fill="#ef9a9a" /><circle cx="175.3" cy="264.4" r="2.9" fill="#ef9a9a" /><circle cx="188.3" cy="269.8" r="2.9" fill="#ef9a9a" /></g><g transform="rotate(19 301.6 162.4)" clip-path="inset(0)"><rect x="290.1" y="150.9" width="23" height="23" fill="none" stroke="#0f172a" stroke-width="1.5" /><line x1="290.1" y1="150.9" x2="313.1" y2="173.9" stroke="#0f172a" stroke-width="1.2" /><line x1="296.1" y1="150.9" x2="319.1" y2="173.9" stroke="#0f172a" stroke-width="1.2" /><line x1="302.1" y1="150.9" x2="325.1" y2="173.9" stroke="#0f172a" stroke-width="1.2" /><line x1="308.1" y1="150.9" x2="331.1" y2="173.9" stroke="#0f172a" stroke-width="1.2" /></g><polygon transform="rotate(109 231.4 233.1)" points="231.4,218.1 246.4,248.1 216.4,248.1" fill="#ef9a9a" /><polygon transform="rotate(238 268.3 105.8)" points="268.3,93.3 280.8,118.3 255.8,118.3" fill="#2fb675" /><g transform="rotate(155 875.9 31.8)"><circle cx="857.2" cy="13.1" r="3.9" fill="#1d3a73" /><circle cx="875.9" cy="13.1" r="3.9" fill="#1d3a73" /><circle cx="894.5" cy="13.1" r="3.9" fill="#1d3a73" /><circle cx="857.2" cy="31.8" r="3.9" fill="#1d3a73" /><circle cx="875.9" cy="31.8" r="3.9" fill="#1d3a73" /><circle cx="894.5" cy="31.8" r="3.9" fill="#1d3a73" /><circle cx="857.2" cy="50.4" r="3.9" fill="#1d3a73" /><circle cx="875.9" cy="50.4" r="3.9" fill="#1d3a73" /><circle cx="894.5" cy="50.4" r="3.9" fill="#1d3a73" /></g><g transform="rotate(173 104.7 5.7)" clip-path="inset(0)"><rect x="87.2" y="-11.8" width="35" height="35" fill="none" stroke="#ef9a9a" stroke-width="1.5" /><line x1="87.2" y1="-11.8" x2="122.2" y2="23.2" stroke="#ef9a9a" stroke-width="1.2" /><line x1="93.2" y1="-11.8" x2="128.2" y2="23.2" stroke="#ef9a9a" stroke-width="1.2" /><line x1="99.2" y1="-11.8" x2="134.2" y2="23.2" stroke="#ef9a9a" stroke-width="1.2" /><line x1="105.2" y1="-11.8" x2="140.2" y2="23.2" stroke="#ef9a9a" stroke-width="1.2" /><line x1="111.2" y1="-11.8" x2="146.2" y2="23.2" stroke="#ef9a9a" stroke-width="1.2" /><line x1="117.2" y1="-11.8" x2="152.2" y2="23.2" stroke="#ef9a9a" stroke-width="1.2" /></g><polygon transform="rotate(100 73.2 259.8)" points="73.2,231.8 101.2,287.8 45.2,287.8" fill="#e23d3d" /><g transform="rotate(358 491.2 296.7)" clip-path="inset(0)"><rect x="478.2" y="283.7" width="26" height="26" fill="none" stroke="#ef9a9a" stroke-width="1.5" /><line x1="478.2" y1="283.7" x2="504.2" y2="309.7" stroke="#ef9a9a" stroke-width="1.2" /><line x1="484.2" y1="283.7" x2="510.2" y2="309.7" stroke="#ef9a9a" stroke-width="1.2" /><line x1="490.2" y1="283.7" x2="516.2" y2="309.7" stroke="#ef9a9a" stroke-width="1.2" /><line x1="496.2" y1="283.7" x2="522.2" y2="309.7" stroke="#ef9a9a" stroke-width="1.2" /><line x1="502.2" y1="283.7" x2="528.2" y2="309.7" stroke="#ef9a9a" stroke-width="1.2" /></g><path transform="rotate(162 304.9 263.3)" d="M 288.4 257.4 L 296.6 269.3 L 304.9 257.4 L 313.1 269.3 L 321.4 257.4" fill="none" stroke="#2fb675" stroke-width="2" stroke-linecap="round" /><rect transform="rotate(196 938.3 321.4)" x="919.3" y="302.4" width="38" height="38" fill="#1d3a73" /><circle cx="657.7" cy="113.1" r="21.3" fill="#f7c948" /><g transform="rotate(149 669.7 252.6)"><circle cx="683.2" cy="252.6" r="2.1" fill="#0f172a" /><circle cx="679.2" cy="262.1" r="2.1" fill="#0f172a" /><circle cx="669.7" cy="266.1" r="2.1" fill="#0f172a" /><circle cx="660.2" cy="262.1" r="2.1" fill="#0f172a" /><circle cx="656.2" cy="252.6" r="2.1" fill="#0f172a" /><circle cx="660.2" cy="243.0" r="2.1" fill="#0f172a" /><circle cx="669.7" cy="239.1" r="2.1" fill="#0f172a" /><circle cx="679.2" cy="243.0" r="2.1" fill="#0f172a" /></g><rect transform="rotate(319 317.1 74.7)" x="294.6" y="52.2" width="45" height="45" fill="#2fb675" /><circle cx="370.9" cy="47.4" r="22.5" fill="#2fb675" /><g transform="rotate(75 599.7 316.2)" clip-path="inset(0)"><rect x="572.2" y="288.7" width="55" height="55" fill="none" stroke="#f7c948" stroke-width="1.5" /><line x1="572.2" y1="288.7" x2="627.2" y2="343.7" stroke="#f7c948" stroke-width="1.2" /><line x1="578.2" y1="288.7" x2="633.2" y2="343.7" stroke="#f7c948" stroke-width="1.2" /><line x1="584.2" y1="288.7" x2="639.2" y2="343.7" stroke="#f7c948" stroke-width="1.2" /><line x1="590.2" y1="288.7" x2="645.2" y2="343.7" stroke="#f7c948" stroke-width="1.2" /><line x1="596.2" y1="288.7" x2="651.2" y2="343.7" stroke="#f7c948" stroke-width="1.2" /><line x1="602.2" y1="288.7" x2="657.2" y2="343.7" stroke="#f7c948" stroke-width="1.2" /><line x1="608.2" y1="288.7" x2="663.2" y2="343.7" stroke="#f7c948" stroke-width="1.2" /><line x1="614.2" y1="288.7" x2="669.2" y2="343.7" stroke="#f7c948" stroke-width="1.2" /><line x1="620.2" y1="288.7" x2="675.2" y2="343.7" stroke="#f7c948" stroke-width="1.2" /><line x1="626.2" y1="288.7" x2="681.2" y2="343.7" stroke="#f7c948" stroke-width="1.2" /></g><rect transform="rotate(255 173.7 17.1)" x="150.2" y="-6.4" width="47" height="47" fill="#e23d3d" /><g transform="rotate(358 317.8 10.5)" clip-path="inset(0)"><rect x="302.8" y="-4.5" width="30" height="30" fill="none" stroke="#ef9a9a" stroke-width="1.5" /><line x1="302.8" y1="-4.5" x2="332.8" y2="25.5" stroke="#ef9a9a" stroke-width="1.2" /><line x1="308.8" y1="-4.5" x2="338.8" y2="25.5" stroke="#ef9a9a" stroke-width="1.2" /><line x1="314.8" y1="-4.5" x2="344.8" y2="25.5" stroke="#ef9a9a" stroke-width="1.2" /><line x1="320.8" y1="-4.5" x2="350.8" y2="25.5" stroke="#ef9a9a" stroke-width="1.2" /><line x1="326.8" y1="-4.5" x2="356.8" y2="25.5" stroke="#ef9a9a" stroke-width="1.2" /><line x1="332.8" y1="-4.5" x2="362.8" y2="25.5" stroke="#ef9a9a" stroke-width="1.2" /></g></g></g>
      
      
      
      <g data-edge-id="edge-2">
    <g>
      <path d="M 345.200 191.200 L 310.909 228.533 Q 308 231.700 308 236 L 308 236 Q 308 240.300 312.281 240.701 L 383.078 247.323 Q 401 249 418.922 247.323 L 489.719 240.701 Q 494 240.300 494 236 L 494 236 Q 494 231.700 491.091 228.533 L 456.800 191.200" fill="none" stroke="#0f172a" stroke-width="2.8127999999999997" stroke-linecap="round" stroke-linejoin="round" marker-end="url(#arrowhead)" opacity="1" />
      <g><rect x="350.1" y="239.0" width="101.8" height="20.0" rx="10.0" ry="10.0" fill="#ffffff" stroke="rgba(91, 71, 194, 0.28)" stroke-width="1" /><text x="401" y="252.5" text-anchor="middle" fill="#0f172a" font-size="12" font-weight="800" font-family="'Archivo Black', 'Arial Black', Arial, sans-serif">&gt;|No| Retry</text></g>
      
    </g>
  </g><g data-edge-id="edge-1">
    <g>
      <path d="M 483.5 130.5 C 506.9 130.5, 600.6 130.5, 624.0 130.5" fill="none" stroke="#0f172a" stroke-width="2.8127999999999997" stroke-linecap="round" stroke-linejoin="round" marker-end="url(#arrowhead-warm)" opacity="1" />
      <g><rect x="532.6" y="120.5" width="42.3" height="20.0" rx="10.0" ry="10.0" fill="#ffffff" stroke="rgba(91, 71, 194, 0.28)" stroke-width="1" /><text x="553.73" y="134.0" text-anchor="middle" fill="#0f172a" font-size="12" font-weight="800" font-family="'Archivo Black', 'Arial Black', Arial, sans-serif">Yes</text></g>
      
    </g>
  </g><g data-edge-id="edge-0">
    <g>
      <path d="M 220.0 130.5 C 236.4 130.5, 302.1 130.5, 318.5 130.5" fill="none" stroke="#0f172a" stroke-width="2.4" stroke-linecap="round" stroke-linejoin="round" marker-end="url(#arrowhead)" opacity="0.82" />
      
      
    </g>
  </g>
      
      <g data-node-id="Start">
      <g>
        
    
    <g filter="url(#cardShadow)">
      <rect x="43" y="90.5" width="172" height="70" rx="4" fill="#f7c948" opacity="1" />
      <rect x="48" y="102.5" width="172" height="70" rx="4" fill="#f7c948" />
      <rect x="48" y="95.5" width="172" height="70" rx="4" fill="url(#entrySurface)" stroke="#0f172a" stroke-width="2.4" />
      <rect x="54" y="101.5" width="160" height="58" rx="10" fill="#f5edd1" opacity="0" />
      
    </g>
  
        <rect x="62" y="109.5" width="10" height="42" rx="5" fill="#f7c948" />
        <rect x="78" y="113.5" width="42" height="4" rx="2" fill="#ffffff" />
        
    <text x="138" y="135.5" text-anchor="middle" fill="#ffffff" font-size="15" font-weight="800" font-family="'Archivo Black', 'Arial Black', Arial, sans-serif">
      <tspan x="138" dy="0">START</tspan>
    </text>
  
      </g>
    </g><g data-node-id="Check">
    <g>
      <path d="M 401.00 48.04 L 417.65 68.37 L 442.23 59.09 L 446.48 85.02 L 472.41 89.27 L 463.13 113.85 L 483.46 130.50 L 463.13 147.15 L 472.41 171.73 L 446.48 175.98 L 442.23 201.91 L 417.65 192.63 L 401.00 212.96 L 384.35 192.63 L 359.77 201.91 L 355.52 175.98 L 329.59 171.73 L 338.87 147.15 L 318.54 130.50 L 338.87 113.85 L 329.59 89.27 L 355.52 85.02 L 359.77 59.09 L 384.35 68.37 Z" fill="#f7c948" stroke="#0f172a" stroke-width="2.4" stroke-linejoin="miter" />
      
    <text x="401" y="134.5" text-anchor="middle" fill="#0f172a" font-size="12" font-weight="800" font-family="'Archivo Black', 'Arial Black', Arial, sans-serif">
      <tspan x="401" dy="0">OK?</tspan>
    </text>
  
    </g>
  </g><g data-node-id="Done">
    <g>
      
    <defs><pattern id="bd-node-hatch-ffffff-7" x="0" y="0" width="7" height="7" patternUnits="userSpaceOnUse" patternTransform="rotate(45)"><line x1="0" y1="0" x2="0" y2="7" stroke="#ffffff" stroke-width="1.26" opacity="0.32" /></pattern></defs>
    <g filter="url(#cardShadow)">
      <rect x="619" y="90.5" width="172" height="70" rx="14" fill="#f7c948" opacity="1" />
      <rect x="624" y="102.5" width="172" height="70" rx="14" fill="#0f172a" />
      <rect x="624" y="95.5" width="172" height="70" rx="14" fill="#e23d3d" stroke="#0f172a" stroke-width="2.4" />
      <rect x="630" y="101.5" width="160" height="58" rx="10" fill="#f5edd1" opacity="0" />
      <rect x="630" y="101.5" width="160" height="58" rx="10" fill="url(#bd-node-hatch-ffffff-7)" pointer-events="none" />
    </g>
  
      
    <text x="710" y="135.5" text-anchor="middle" fill="#ffffff" font-size="14" font-weight="800" font-family="'Archivo Black', 'Arial Black', Arial, sans-serif">
      <tspan x="710" dy="0">DONE</tspan>
    </text>
  
    </g>
  </g>
      
    </svg>