
    <svg viewBox="72.0 36.0 512.0 296.0" fill="none" xmlns="http://www.w3.org/2000/svg">
      <defs>
        <linearGradient id="entrySurface" x1="0%" y1="0%" x2="0%" y2="100%">
          <stop offset="0%" stop-color="#c9efeb" />
          <stop offset="100%" stop-color="#6cccc4" />
        </linearGradient>
        
        <filter id="cardShadow" x="-20%" y="-20%" width="140%" height="160%">
          <feDropShadow dx="0" dy="6" stdDeviation="15" flood-color="#1f2937" flood-opacity="0.10" />
          <feDropShadow dx="0" dy="1" stdDeviation="3" flood-color="#1f2937" flood-opacity="0.05" />
        </filter>
        <marker id="arrowhead" viewBox="0 0 10 10" refX="8" refY="5" markerWidth="8" markerHeight="8" orient="auto-start-reverse">
          <path d="M 0 0 L 10 5 L 0 10 z" fill="#3aa5a0" />
        </marker>
        <marker id="arrowhead-cool" viewBox="0 0 10 10" refX="8" refY="5" markerWidth="8" markerHeight="8" orient="auto-start-reverse">
          <path d="M 0 0 L 10 5 L 0 10 z" fill="#cf5c41" />
        </marker>
        
      </defs>

        <defs>
          <linearGradient id="bg-grad" x1="0" y1="0" x2="1" y2="1">
            <stop offset="0%" stop-color="#f6f6f3" />
            <stop offset="100%" stop-color="#eef0eb" />
          </linearGradient>
          <pattern id="line-grid" x="0" y="0" width="32" height="32" patternUnits="userSpaceOnUse">
            <path d="M 32 0 L 0 0 0 32" fill="none" stroke="#1f2937" stroke-width="0.6" opacity="0.32" />
          </pattern>
        </defs>
        <rect x="72" y="36" width="512" height="296" fill="url(#bg-grad)" />
        <rect x="72" y="36" width="512" height="296" fill="url(#line-grid)" />
      <path d="M 184 136 L 184 308" stroke="#1f2937" stroke-width="0.73" stroke-dasharray="8 10" opacity="0.8" /><path d="M 464 136 L 464 308" stroke="#1f2937" stroke-width="0.73" stroke-dasharray="8 10" opacity="0.8" />
      <g data-edge-id="edge-0"><path d="M 198 168 C 286.2 168 361.8 168 450 168" fill="none" stroke="#3aa5a0" stroke-width="1.36" stroke-linecap="round" stroke-linejoin="round" marker-end="url(#arrowhead)" opacity="0.95" /><g><rect x="295.4" y="146.0" width="57.2" height="20.0" rx="10.0" ry="10.0" fill="#ffffff" stroke="rgba(91, 71, 194, 0.28)" stroke-width="1" /><text x="324" y="159.5" text-anchor="middle" fill="#1f2937" font-size="12" font-weight="800" font-family="var(--font-geist-sans), 'Noto Sans TC', 'Hiragino Sans', 'Yu Gothic', sans-serif">login</text></g></g><g data-edge-id="edge-1"><path d="M 450 246 C 361.8 246 286.2 246 198 246" fill="none" stroke="#3aa5a0" stroke-width="1.36" stroke-linecap="round" stroke-linejoin="round" marker-end="url(#arrowhead)" opacity="0.95" /><g><rect x="295.4" y="224.0" width="57.2" height="20.0" rx="10.0" ry="10.0" fill="#ffffff" stroke="rgba(91, 71, 194, 0.28)" stroke-width="1" /><text x="324" y="237.5" text-anchor="middle" fill="#1f2937" font-size="12" font-weight="800" font-family="var(--font-geist-sans), 'Noto Sans TC', 'Hiragino Sans', 'Yu Gothic', sans-serif">token</text></g></g>
      <g data-node-id="user">
      <g>
        
    
    <g filter="url(#cardShadow)">
      <rect x="104" y="68" width="176" height="64" rx="16" fill="#cbd0c8" opacity="0.65" />
      
      <rect x="96" y="60" width="176" height="64" rx="16" fill="url(#entrySurface)" stroke="#a87d18" stroke-width="1.6" />
      <rect x="102" y="66" width="164" height="52" rx="10" fill="#e2e4df" opacity="0.6" />
      
    </g>
  
        <rect x="112" y="74" width="10" height="36" rx="5" fill="#0e7e7c" />
        <rect x="128" y="78" width="44" height="4" rx="2" fill="#cff1ee" />
        
    <text x="188" y="97" text-anchor="middle" fill="#0a3a3a" font-size="15" font-weight="800" font-family="var(--font-geist-sans), 'Noto Sans TC', 'Hiragino Sans', 'Yu Gothic', sans-serif">
      <tspan x="188" dy="0">USER</tspan>
    </text>
  
      </g>
    </g><g data-node-id="system">
      <g>
        
    
    <g filter="url(#cardShadow)">
      <rect x="384" y="68" width="176" height="64" rx="16" fill="#cbd0c8" opacity="0.65" />
      
      <rect x="376" y="60" width="176" height="64" rx="16" fill="url(#entrySurface)" stroke="#a87d18" stroke-width="1.6" />
      <rect x="382" y="66" width="164" height="52" rx="10" fill="#e2e4df" opacity="0.6" />
      
    </g>
  
        <rect x="392" y="74" width="10" height="36" rx="5" fill="#0e7e7c" />
        <rect x="408" y="78" width="44" height="4" rx="2" fill="#cff1ee" />
        
    <text x="468" y="97" text-anchor="middle" fill="#0a3a3a" font-size="15" font-weight="800" font-family="var(--font-geist-sans), 'Noto Sans TC', 'Hiragino Sans', 'Yu Gothic', sans-serif">
      <tspan x="468" dy="0">SYSTEM</tspan>
    </text>
  
      </g>
    </g>
      
      
    </svg>
  